<svg width="140" height="64" viewBox="0 0 140 64" fill="none" xmlns="http://www.w3.org/2000/svg">
<rect width="140" height="64" rx="6" fill="#F2F4F7"/>
<rect x="53" y="39" width="32" height="16" rx="2" fill="#F9FAFB"/>
<rect x="53" y="39" width="32" height="4" fill="#E9EBF0"/>
<rect x="56" y="46" width="16" height="2" rx="1" fill="#E9EBF0"/>
<rect x="56" y="50" width="24" height="2" rx="1" fill="#E9EBF0"/>
<rect x="100" y="11" width="32" height="16" rx="2" fill="#F9FAFB"/>
<rect x="103" y="14" width="26" height="2" rx="1" fill="#E9EBF0"/>
<rect x="103" y="18" width="13" height="2" rx="1" fill="#E9EBF0"/>
<rect x="11" y="8" width="20" height="20" rx="4" fill="#A5B4FC"/>
<path d="M22.5 19.864H19.068L18.3 22H16.56L19.668 13.672H21.936L25.032 22H23.232L22.5 19.864ZM19.56 18.448H21.996L20.868 15.172H20.724L19.56 18.448Z" fill="white"/>
<rect x="57" y="22" width="71" height="20" rx="4" fill="#A5B4FC"/>
<path d="M68 33.864H64.568L63.8 36H62.06L65.168 27.672H67.436L70.532 36H68.732L68 33.864ZM65.06 32.448H67.496L66.368 29.172H66.224L65.06 32.448ZM78.9044 35.28C78.1364 35.856 77.4044 36.12 76.5764 36.12C74.9564 36.12 73.9604 35.136 73.9604 33.804C73.9604 32.844 74.4404 32.1 75.7004 31.344C75.2324 30.708 75.0644 30.192 75.0644 29.52C75.0644 28.38 75.9644 27.552 77.3444 27.552C78.7004 27.552 79.4324 28.272 79.4324 29.412C79.4324 30.36 78.9644 30.948 77.8004 31.632L79.0724 33.228C79.3604 32.736 79.5164 32.16 79.5404 31.476H80.9924C80.9084 32.676 80.6444 33.504 79.9724 34.308C80.2964 34.596 80.6084 34.716 81.2204 34.716V36C80.6084 36 80.1404 35.952 79.8164 35.868C79.5044 35.772 79.2044 35.58 78.9044 35.28ZM76.7924 34.812C77.2604 34.812 77.6564 34.644 78.0884 34.308L76.4924 32.34C75.8084 32.772 75.5684 33.168 75.5684 33.66C75.5684 34.332 76.0724 34.812 76.7924 34.812ZM77.0324 30.66C77.7404 30.276 77.9924 29.976 77.9924 29.508C77.9924 29.028 77.7524 28.752 77.3324 28.752C76.9004 28.752 76.6244 29.076 76.6244 29.568C76.6244 29.892 76.7564 30.252 77.0324 30.66ZM86.5802 35.28C85.8122 35.856 85.0802 36.12 84.2522 36.12C82.6322 36.12 81.6362 35.136 81.6362 33.804C81.6362 32.844 82.1162 32.1 83.3762 31.344C82.9082 30.708 82.7402 30.192 82.7402 29.52C82.7402 28.38 83.6402 27.552 85.0202 27.552C86.3762 27.552 87.1082 28.272 87.1082 29.412C87.1082 30.36 86.6402 30.948 85.4762 31.632L86.7482 33.228C87.0362 32.736 87.1922 32.16 87.2162 31.476H88.6682C88.5842 32.676 88.3202 33.504 87.6482 34.308C87.9722 34.596 88.2842 34.716 88.8962 34.716V36C88.2842 36 87.8162 35.952 87.4922 35.868C87.1802 35.772 86.8802 35.58 86.5802 35.28ZM84.4682 34.812C84.9362 34.812 85.3322 34.644 85.7642 34.308L84.1682 32.34C83.4842 32.772 83.2442 33.168 83.2442 33.66C83.2442 34.332 83.7482 34.812 84.4682 34.812ZM84.7082 30.66C85.4162 30.276 85.6682 29.976 85.6682 29.508C85.6682 29.028 85.4282 28.752 85.0082 28.752C84.5762 28.752 84.3002 29.076 84.3002 29.568C84.3002 29.892 84.4322 30.252 84.7082 30.66ZM98.826 29.904C98.826 30.816 98.478 31.38 97.614 31.632V31.68C98.586 31.908 99.078 32.556 99.078 33.6C99.078 35.172 98.358 36 96.018 36H93.042V27.672H95.778C98.142 27.672 98.826 28.368 98.826 29.904ZM94.734 34.632H95.622C97.002 34.632 97.374 34.416 97.374 33.504C97.374 32.652 96.99 32.376 95.622 32.376H94.734V34.632ZM94.734 31.14H95.382C96.69 31.14 97.158 30.96 97.158 30.072C97.158 29.16 96.726 29.028 95.382 29.028H94.734V31.14ZM103.475 26.88H104.879V38.4H103.475V26.88ZM106.077 26.88H107.481V38.4H106.077V26.88ZM112.48 27.672H114.268L114.052 33.084H112.708L112.48 27.672ZM113.368 34.152C114.184 34.152 114.34 34.284 114.34 35.112C114.34 35.94 114.184 36.072 113.368 36.072C112.54 36.072 112.408 35.94 112.408 35.112C112.408 34.284 112.54 34.152 113.368 34.152ZM116.322 31.836C116.322 30.3 116.658 29.208 117.342 28.548C118.026 27.888 119.022 27.552 120.318 27.552C121.074 27.552 121.71 27.636 122.238 27.816V29.292C121.686 29.1 121.074 29.004 120.414 29.004C118.818 29.004 118.134 29.712 118.134 31.824C118.134 34.056 118.794 34.644 120.378 34.644C121.086 34.644 121.734 34.536 122.334 34.32V35.772C121.806 35.976 121.074 36.12 120.306 36.12C117.738 36.108 116.358 35.244 116.322 31.836Z" fill="white"/>
<rect x="11" y="36" width="20" height="20" rx="4" fill="#A5B4FC"/>
<path d="M23.744 43.904C23.744 44.816 23.396 45.38 22.532 45.632V45.68C23.504 45.908 23.996 46.556 23.996 47.6C23.996 49.172 23.276 50 20.936 50H17.96V41.672H20.696C23.06 41.672 23.744 42.368 23.744 43.904ZM19.652 48.632H20.54C21.92 48.632 22.292 48.416 22.292 47.504C22.292 46.652 21.908 46.376 20.54 46.376H19.652V48.632ZM19.652 45.14H20.3C21.608 45.14 22.076 44.96 22.076 44.072C22.076 43.16 21.644 43.028 20.3 43.028H19.652V45.14Z" fill="white"/>
<path d="M31 18.75H40L48.5 32" stroke="#D0D5DC"/>
<path d="M48 32H57" stroke="#D0D5DC"/>
<path d="M31 45.75H40L48.5 32" stroke="#D0D5DC"/>
<rect x="60" y="6.75732" width="4.41424" height="4.41424" transform="rotate(45 60 6.75732)" fill="#E0E7FF"/>
<rect x="96.1211" y="51" width="4.41424" height="4.41424" transform="rotate(45 96.1211 51)" fill="#C7D2FE"/>
</svg>
