<svg xmlns="http://www.w3.org/2000/svg" viewBox="0 0 109 22" fill="none">
  <path fill-rule="evenodd" clip-rule="evenodd" d="M42.0586 6.8418C41.8865 6.98492 41.731 7.14362 41.5898 7.31543V5.94531H39.8984V21.2002H41.5898V14.9189C41.7312 15.0912 41.8866 15.2512 42.0586 15.3945L42.2988 15.582C42.5445 15.7619 42.8057 15.9166 43.0811 16.0459L43.3594 16.167C43.6407 16.2788 43.9324 16.3658 44.2344 16.4268C44.6338 16.5088 45.0285 16.5498 45.416 16.5498C46.1992 16.5498 46.9253 16.4157 47.5898 16.1465L47.834 16.041C48.3936 15.7828 48.8875 15.442 49.3135 15.0166L49.4902 14.8301C49.8914 14.3852 50.2101 13.8725 50.4443 13.293L50.5381 13.04C50.7438 12.4448 50.8457 11.8039 50.8457 11.1182C50.8457 10.4327 50.744 9.79055 50.5381 9.19531L50.4443 8.94336C50.1768 8.28126 49.7998 7.70504 49.3135 7.21875C48.8881 6.79341 48.3938 6.45228 47.834 6.19434L47.5898 6.08887C46.9251 5.81891 46.1991 5.68558 45.416 5.68555C45.125 5.68555 44.8307 5.70972 44.5332 5.75586L44.2354 5.80859C43.9328 5.87052 43.6409 5.95748 43.3594 6.06934L43.0811 6.19043C42.8057 6.31967 42.5447 6.47422 42.2988 6.6543L42.0586 6.8418ZM48.959 9.78223C49.0904 10.2027 49.1572 10.6473 49.1572 11.1182C49.1572 11.5892 49.0905 12.034 48.959 12.4541L48.8984 12.6328C48.7494 13.0445 48.5409 13.4071 48.2734 13.7227L48.1553 13.8555C47.8714 14.1576 47.5343 14.4059 47.1426 14.6006L46.9717 14.6807C46.5129 14.8831 45.9943 14.9873 45.416 14.9873C44.9234 14.9873 44.465 14.9081 44.0391 14.752L43.8584 14.6797C43.378 14.474 42.9611 14.1975 42.6064 13.8496C42.2965 13.5456 42.0447 13.1948 41.8486 12.7949L41.7676 12.6201C41.5635 12.1512 41.4609 11.651 41.4609 11.1182C41.4609 10.5838 41.5628 10.0847 41.7676 9.61523L41.8486 9.44141C42.0447 9.04211 42.2966 8.69068 42.6064 8.38672C42.9611 8.03887 43.3779 7.76199 43.8584 7.55566L44.0391 7.48438C44.465 7.32831 44.9232 7.24906 45.416 7.24902C45.9945 7.24902 46.513 7.35234 46.9717 7.55469L47.1426 7.63477C47.5344 7.8299 47.8714 8.07869 48.1553 8.38086L48.2734 8.51367C48.5408 8.82877 48.7494 9.19172 48.8984 9.60352L48.959 9.78223Z" fill="white" fill-opacity="0.9"/>
  <path d="M88.1484 5.68555L88.1885 5.83301L90.4404 14.0215L93.0371 5.8252L93.0811 5.68555H94.5986L97.4053 14.0332L99.5996 5.83398L99.6387 5.68555H101.349L98.3086 16.5059H96.6797L96.6328 16.3721L93.835 8.2998L91.2207 16.3682L91.1758 16.5059H89.5479L89.5049 16.3633L86.3057 5.68555H88.1484Z" fill="white" fill-opacity="0.9"/>
  <path fill-rule="evenodd" clip-rule="evenodd" d="M19.5186 14.9873C20.0969 14.9873 20.6141 14.8841 21.0742 14.6816L21.2451 14.6016C21.6371 14.4064 21.9747 14.157 22.2578 13.8545L22.418 13.6709C22.5712 13.4816 22.703 13.2748 22.8164 13.0518L22.8721 12.9424H24.6875L24.5762 13.2178C24.5684 13.2369 24.563 13.2539 24.5518 13.2852L24.5488 13.293C24.2799 13.9557 23.9024 14.5305 23.417 15.0166C22.9313 15.5029 22.3554 15.88 21.6934 16.1475C21.0287 16.4174 20.3035 16.5498 19.5205 16.5498C18.8344 16.5498 18.1899 16.448 17.5898 16.2422L17.3359 16.1475C16.6664 15.8799 16.0891 15.5022 15.6104 15.0146C15.1909 14.5896 14.8533 14.0962 14.5967 13.5371L14.4912 13.293C14.2227 12.6279 14.0889 11.9021 14.0889 11.1182C14.0889 10.3349 14.2227 9.60788 14.4912 8.94336C14.7585 8.28195 15.1312 7.70695 15.6113 7.2207C16.0301 6.79376 16.5232 6.45136 17.0889 6.19336L17.3359 6.08789C18.0073 5.81833 18.7368 5.68555 19.5205 5.68555C20.3037 5.68559 21.0289 5.8197 21.6934 6.08887C22.3552 6.35699 22.9307 6.73277 23.417 7.21973L23.5947 7.40625C23.9389 7.78763 24.2218 8.21932 24.4434 8.69922L24.5488 8.94336L24.6436 9.19629C24.8492 9.79165 24.9502 10.4331 24.9502 11.1182C24.9502 11.2309 24.9467 11.3413 24.9414 11.4512L24.9326 11.6416H15.8115C15.849 11.9868 15.9213 12.3175 16.0352 12.6328L16.1025 12.8066C16.2453 13.1476 16.4319 13.4529 16.6611 13.7227L16.7793 13.8545L16.9043 13.9814C17.2036 14.2689 17.5559 14.5018 17.9629 14.6816L18.1377 14.7529C18.5524 14.9083 19.0119 14.9873 19.5186 14.9873ZM17.9648 7.55469C18.4248 7.35169 18.9416 7.24906 19.5205 7.24902C20.0982 7.24902 20.6161 7.35166 21.0762 7.55469L21.2471 7.63477C21.6386 7.82984 21.9761 8.0784 22.2598 8.38086L22.3779 8.51367C22.6073 8.78424 22.7942 9.08912 22.9365 9.42969L23.0039 9.60352C23.0596 9.75824 23.105 9.91653 23.1426 10.0781H15.8984C15.9359 9.91633 15.981 9.75803 16.0371 9.60352L16.1045 9.42969C16.2709 9.03165 16.4969 8.68237 16.7812 8.38086L16.9062 8.25488C17.2057 7.96792 17.5575 7.73448 17.9648 7.55469Z" fill="white" fill-opacity="0.9"/>
  <path fill-rule="evenodd" clip-rule="evenodd" d="M32.5186 14.9873C33.0969 14.9873 33.6141 14.8841 34.0742 14.6816L34.2451 14.6016C34.6371 14.4064 34.9747 14.157 35.2578 13.8545L35.418 13.6709C35.5712 13.4816 35.703 13.2748 35.8164 13.0518L35.8721 12.9424H37.6875L37.5762 13.2178C37.5684 13.2369 37.563 13.2539 37.5518 13.2852L37.5488 13.293C37.2799 13.9557 36.9024 14.5305 36.417 15.0166C35.9313 15.5029 35.3554 15.88 34.6934 16.1475C34.0287 16.4174 33.3035 16.5498 32.5205 16.5498C31.8344 16.5498 31.1899 16.448 30.5898 16.2422L30.3359 16.1475C29.6664 15.8799 29.0891 15.5022 28.6104 15.0146C28.1909 14.5896 27.8533 14.0962 27.5967 13.5371L27.4912 13.293C27.2227 12.6279 27.0889 11.9021 27.0889 11.1182C27.0889 10.3349 27.2227 9.60788 27.4912 8.94336C27.7585 8.28195 28.1312 7.70695 28.6113 7.2207C29.0301 6.79376 29.5232 6.45136 30.0889 6.19336L30.3359 6.08789C31.0073 5.81833 31.7368 5.68555 32.5205 5.68555C33.3037 5.68559 34.0289 5.8197 34.6934 6.08887C35.3552 6.35699 35.9307 6.73277 36.417 7.21973L36.5947 7.40625C36.9389 7.78763 37.2218 8.21932 37.4434 8.69922L37.5488 8.94336L37.6436 9.19629C37.8492 9.79165 37.9502 10.4331 37.9502 11.1182C37.9502 11.2309 37.9467 11.3413 37.9414 11.4512L37.9326 11.6416H28.8115C28.849 11.9868 28.9213 12.3175 29.0352 12.6328L29.1025 12.8066C29.2453 13.1476 29.4319 13.4529 29.6611 13.7227L29.7793 13.8545L29.9043 13.9814C30.2036 14.2689 30.5559 14.5018 30.9629 14.6816L31.1377 14.7529C31.5524 14.9083 32.0119 14.9873 32.5186 14.9873ZM30.9648 7.55469C31.4248 7.35169 31.9416 7.24906 32.5205 7.24902C33.0982 7.24902 33.6161 7.35166 34.0762 7.55469L34.2471 7.63477C34.6386 7.82984 34.9761 8.0784 35.2598 8.38086L35.3779 8.51367C35.6073 8.78424 35.7942 9.08912 35.9365 9.42969L36.0039 9.60352C36.0596 9.75824 36.105 9.91653 36.1426 10.0781H28.8984C28.9359 9.91633 28.981 9.75803 29.0371 9.60352L29.1045 9.42969C29.2709 9.03165 29.4969 8.68237 29.7812 8.38086L29.9062 8.25488C30.2057 7.96792 30.5575 7.73448 30.9648 7.55469Z" fill="white" fill-opacity="0.9"/>
  <path fill-rule="evenodd" clip-rule="evenodd" d="M5.95703 0.799805C9.21424 0.799838 11.8742 3.35861 12.0381 6.5752L12.0459 6.88867V10.5957C12.0459 13.958 9.3203 16.6844 5.95801 16.6846H0V0.799805H5.95703ZM10.2256 7.22363V10.2607L10.2188 10.541C10.1578 11.9171 9.64603 12.9544 8.83789 13.6611C7.97177 14.4183 6.74387 14.8145 5.31055 14.8145H1.82129V2.66992H5.31152C6.7379 2.66995 7.96661 3.12144 8.83594 3.91016C9.70332 4.69718 10.2256 5.83143 10.2256 7.22363Z" fill="white" fill-opacity="0.9"/>
  <path d="M81.0201 8.53162C80.7009 8.85082 80.1817 8.85082 79.8625 8.53162C79.5419 8.21176 79.5419 7.69256 79.8625 7.37271C80.1817 7.05285 80.7009 7.05285 81.0201 7.37271C81.3399 7.69256 81.3399 8.21111 81.0201 8.53162Z" fill="#00AEEB"/>
  <path d="M75.2707 14.2795C74.9502 14.6 74.4323 14.6 74.1125 14.2795C73.7919 13.9603 73.7919 13.4411 74.1125 13.1212C74.4323 12.8014 74.9502 12.8014 75.2707 13.1212C75.5912 13.4411 75.5912 13.9603 75.2707 14.2795Z" fill="#00AEEB"/>
  <path d="M81.6314 11.646C81.1793 11.646 80.8125 11.2793 80.8125 10.8265C80.8125 10.3738 81.1786 10.0063 81.6314 10.0063C82.0841 10.0063 82.4515 10.3731 82.4515 10.8265C82.4515 11.2786 82.0835 11.646 81.6314 11.646Z" fill="#39AD36"/>
  <path d="M73.5015 11.646C73.0487 11.646 72.6826 11.2793 72.6826 10.8265C72.6826 10.3738 73.0487 10.0063 73.5015 10.0063C73.9542 10.0063 74.3203 10.3731 74.3203 10.8265C74.3197 11.2786 73.9542 11.646 73.5015 11.646Z" fill="#F8DE00"/>
  <path d="M78.3848 6.76075C78.3848 7.2135 78.0174 7.58092 77.5653 7.58092C77.1125 7.58092 76.7451 7.21416 76.7451 6.76075C76.7451 6.30866 77.1119 5.94189 77.5653 5.94189C78.0167 5.94189 78.3848 6.30866 78.3848 6.76075Z" fill="#39AD36"/>
  <path d="M78.3848 14.8908C78.3848 15.3436 78.0174 15.7103 77.5653 15.7103C77.1125 15.7103 76.7451 15.3442 76.7451 14.8908C76.7451 14.4387 77.1119 14.0713 77.5653 14.0713C78.0167 14.0719 78.3848 14.4387 78.3848 14.8908Z" fill="#39AD36"/>
  <path d="M75.2707 7.37173C75.5906 7.69159 75.5906 8.21013 75.2707 8.53064C74.9502 8.84985 74.4323 8.84985 74.1125 8.53064C73.7919 8.21013 73.7919 7.69159 74.1125 7.37173C74.4323 7.05187 74.9502 7.05187 75.2707 7.37173Z" fill="#00AEEB"/>
  <path d="M81.0201 13.1217C81.3399 13.4416 81.3399 13.9601 81.0201 14.28C80.7009 14.6005 80.1817 14.6005 79.8625 14.28C79.5419 13.9601 79.5419 13.4416 79.8625 13.1217C80.181 12.8012 80.7002 12.8012 81.0201 13.1217Z" fill="#00AEEB"/>
  <path d="M80.3784 5.70454C80.252 6.0029 79.9074 6.14166 79.6084 6.01528C79.3094 5.8889 79.1706 5.54363 79.2963 5.24528C79.4234 4.94692 79.7686 4.80686 80.0676 4.93324C80.3666 5.06092 80.5054 5.40553 80.3784 5.70454Z" fill="#F8DE00"/>
  <path d="M75.8354 16.408C75.7097 16.707 75.3638 16.8458 75.0654 16.7194C74.7664 16.5923 74.627 16.2477 74.754 15.9494C74.8797 15.651 75.2257 15.511 75.524 15.6373C75.823 15.7644 75.9624 16.109 75.8354 16.408Z" fill="#F8DE00"/>
  <path d="M72.4438 8.01378C72.7429 8.14081 72.8823 8.48608 72.7552 8.78444C72.6295 9.0828 72.2842 9.2222 71.9852 9.09582C71.6869 8.96944 71.5468 8.62353 71.6738 8.32517C71.8002 8.02616 72.1455 7.88675 72.4438 8.01378Z" fill="#39AD36"/>
  <path d="M83.1466 12.5578C83.4456 12.6849 83.5857 13.0295 83.4586 13.3285C83.3322 13.6268 82.9876 13.7656 82.6893 13.6399C82.3903 13.5128 82.2496 13.1676 82.3772 12.8686C82.5049 12.5696 82.8489 12.4308 83.1466 12.5578Z" fill="#00AEEB"/>
  <path d="M71.9561 12.4603C72.2564 12.3391 72.5997 12.4838 72.7209 12.7847C72.8427 13.0863 72.6968 13.4283 72.3965 13.5502C72.0949 13.672 71.7535 13.5267 71.6317 13.2251C71.5105 12.9248 71.6551 12.5815 71.9561 12.4603Z" fill="#00AEEB"/>
  <path d="M82.7376 8.10328C83.0379 7.98211 83.38 8.12738 83.5011 8.42835C83.6236 8.72866 83.4783 9.07132 83.1767 9.19314C82.8764 9.31561 82.5344 9.16969 82.4132 8.86872C82.2914 8.5671 82.4367 8.22575 82.7376 8.10328Z" fill="#39AD36"/>
  <path d="M80.2886 15.9984C80.1674 15.6961 79.8254 15.5515 79.5251 15.6727C79.2235 15.7945 79.0782 16.1365 79.2007 16.4375C79.3218 16.7378 79.6645 16.8844 79.9648 16.7619C80.2651 16.6407 80.4104 16.2981 80.2886 15.9984Z" fill="#00AEEB"/>
  <path d="M75.934 5.21508C75.8122 4.91477 75.4695 4.76885 75.1692 4.89067C74.8689 5.01314 74.7229 5.35449 74.8448 5.65546C74.9659 5.95642 75.3092 6.10235 75.6096 5.98053C75.9099 5.85871 76.0551 5.5167 75.934 5.21508Z" fill="#F8DE00"/>
  <path d="M80.0141 13.2399C78.1796 11.2387 78.1796 10.4147 80.0141 8.41409L79.9795 8.37891C77.9777 10.2147 77.1536 10.214 75.1524 8.37695L75.1172 8.41213C76.9549 10.4147 76.9549 11.2387 75.1172 13.2413L75.1524 13.2771C77.1536 11.4387 77.9777 11.4387 79.9795 13.2745L80.0141 13.2399Z" fill="#00AEEB"/>
  <path d="M82.2205 6.76248C82.0563 6.92664 81.7905 6.92664 81.627 6.76248C81.4629 6.59897 81.4629 6.33253 81.627 6.16902C81.7905 6.00551 82.0563 6.00551 82.2205 6.16902C82.3834 6.33253 82.3834 6.59897 82.2205 6.76248Z" fill="#00AEEB"/>
  <path d="M73.5844 15.3995C73.4209 15.5643 73.1545 15.5643 72.9903 15.3995C72.8261 15.2367 72.8261 14.9709 72.9903 14.8067C73.1545 14.6439 73.4209 14.6439 73.5844 14.8067C73.7473 14.9702 73.7473 15.2367 73.5844 15.3995Z" fill="#00AEEB"/>
  <path d="M78.0256 4.67734C78.0256 4.90925 77.838 5.09752 77.6067 5.09752C77.3754 5.09752 77.1865 4.9099 77.1865 4.67734C77.1865 4.44608 77.3748 4.25781 77.6067 4.25781C77.838 4.25781 78.0256 4.44543 78.0256 4.67734Z" fill="#00AEEB"/>
  <path d="M78.0256 16.892C78.0256 17.1246 77.838 17.3122 77.6067 17.3122C77.3754 17.3122 77.1865 17.1252 77.1865 16.892C77.1865 16.6614 77.3748 16.4731 77.6067 16.4731C77.838 16.4731 78.0256 16.6608 78.0256 16.892Z" fill="#00AEEB"/>
  <path d="M73.5844 6.16902C73.7473 6.33253 73.7473 6.59897 73.5844 6.76248C73.4209 6.92664 73.1545 6.92664 72.9903 6.76248C72.8261 6.59897 72.8261 6.33253 72.9903 6.16902C73.1545 6.00551 73.4209 6.00551 73.5844 6.16902Z" fill="#00AEEB"/>
  <path d="M82.2205 14.8067C82.3834 14.9709 82.3834 15.2367 82.2205 15.3995C82.0563 15.5643 81.7905 15.5643 81.627 15.3995C81.4629 15.2367 81.4629 14.9709 81.627 14.8067C81.7905 14.6439 82.0563 14.6439 82.2205 14.8067Z" fill="#00AEEB"/>
  <path d="M71.4983 10.3652C71.7302 10.3652 71.9178 10.5528 71.9178 10.7854C71.9178 11.0167 71.7309 11.2049 71.4983 11.2049C71.267 11.2049 71.0781 11.0173 71.0781 10.7854C71.0788 10.5528 71.267 10.3652 71.4983 10.3652Z" fill="#00AEEB"/>
  <path d="M83.7132 10.3652C83.9451 10.3652 84.1327 10.5528 84.1327 10.7854C84.1327 11.0167 83.9457 11.2049 83.7132 11.2049C83.4806 11.2049 83.293 11.0173 83.293 10.7854C83.2936 10.5528 83.4812 10.3652 83.7132 10.3652Z" fill="#00AEEB"/>
  <path fill-rule="evenodd" clip-rule="evenodd" d="M55.9238 0.799805H63.7393V2.49219H56.1309C55.3468 2.49219 54.711 3.12734 54.7109 3.91113V7.52637H63.2012V9.21777H54.7109V16.6992H52.8896V3.83398C52.8896 2.15809 54.2486 0.799805 55.9238 0.799805Z" fill="white" fill-opacity="0.9"/>
  <path d="M67.4717 14.7783C67.4719 14.875 67.5732 14.9824 67.7021 14.9824L68.6348 14.9834H68.834V16.6748H67.5986C66.5934 16.6748 65.7803 15.8591 65.7803 14.8545V0.799805H67.4844L67.4717 14.7783Z" fill="white" fill-opacity="0.9"/>
  <path d="M106.086 1.00098C106.514 1.00098 106.933 1.11107 107.341 1.33126C107.75 1.55079 108.069 1.86544 108.297 2.27584C108.524 2.68625 108.638 3.11229 108.638 3.55853C108.638 3.9989 108.526 4.42234 108.302 4.82884C108.077 5.23338 107.761 5.54933 107.356 5.77473C106.951 6.00012 106.528 6.11152 106.086 6.11152C105.641 6.11152 105.218 6.00012 104.813 5.77473C104.408 5.54933 104.092 5.23338 103.866 4.82884C103.64 4.42234 103.528 3.9989 103.528 3.55853C103.528 3.11229 103.64 2.68625 103.87 2.27584C104.099 1.86544 104.419 1.55079 104.829 1.33126C105.235 1.11107 105.656 1.00098 106.086 1.00098ZM106.086 1.42376C105.724 1.42376 105.375 1.51627 105.038 1.70062C104.697 1.88498 104.431 2.14751 104.238 2.48952C104.046 2.83152 103.95 3.18786 103.95 3.55918C103.95 3.92659 104.046 4.28032 104.234 4.61712C104.422 4.95456 104.686 5.2184 105.025 5.40601C105.363 5.59558 105.717 5.68874 106.087 5.68874C106.453 5.68874 106.806 5.59558 107.146 5.40601C107.484 5.2184 107.748 4.95456 107.935 4.61712C108.122 4.28032 108.215 3.92659 108.215 3.55918C108.215 3.18851 108.12 2.83217 107.93 2.48952C107.74 2.14751 107.473 1.88498 107.131 1.70062C106.791 1.51561 106.442 1.42376 106.086 1.42376ZM104.963 4.97085V2.21917H105.909C106.23 2.21917 106.465 2.24588 106.61 2.29604C106.754 2.34685 106.868 2.43545 106.954 2.56117C107.041 2.68755 107.083 2.8224 107.083 2.96442C107.083 3.16506 107.011 3.33964 106.868 3.48948C106.724 3.63866 106.534 3.72074 106.298 3.74093C106.394 3.78262 106.472 3.83018 106.531 3.88685C106.641 3.99564 106.776 4.1774 106.936 4.43276L107.272 4.97085H106.731L106.487 4.53699C106.295 4.19629 106.14 3.98262 106.023 3.89663C105.941 3.83344 105.823 3.80152 105.668 3.80152H105.406V4.97085H104.963ZM105.407 3.42238H105.946C106.203 3.42238 106.38 3.38394 106.473 3.30707C106.567 3.22955 106.614 3.12793 106.614 3.0022C106.614 2.92012 106.59 2.84781 106.546 2.78332C106.501 2.71947 106.439 2.67127 106.358 2.6387C106.277 2.60808 106.129 2.5931 105.913 2.5931H105.408V3.42238H105.407Z" fill="white" fill-opacity="0.9"/>
</svg>