<svg width="16" height="16" viewBox="0 0 16 16" fill="none" xmlns="http://www.w3.org/2000/svg">
<path d="M8.01112 1C7.88744 1 7.52456 1.1316 7.52456 1.1316L2.67296 3.52784C2.67296 3.52784 2.44543 3.64986 2.39059 3.72044C2.33459 3.79222 2.28091 4.01713 2.28091 4.01713L1.04643 9.5621L1.00909 9.72959C1.00909 9.72959 0.978752 9.86477 1.02893 9.96646L1.09893 10.11L1.19578 10.2655L4.73121 14.7757C4.73121 14.7757 4.83623 14.9192 4.90624 14.9551C4.97625 15.0269 5.22361 14.991 5.22361 14.991H10.7963C10.7963 14.991 11.0763 15.0042 11.1498 14.9551C11.2549 14.8834 11.3715 14.7039 11.3715 14.7039L14.7319 10.3816C14.7319 10.3816 14.9653 10.0837 14.9921 9.96287C15.0272 9.67456 14.9338 9.37667 14.9338 9.37667L13.781 4.19658C13.781 4.19658 13.7203 3.84247 13.6526 3.74796C13.5861 3.65225 13.2956 3.50032 13.2956 3.50032L8.52918 1.14715C8.52918 1.14715 8.14413 1.00239 8.01112 1Z" fill="#316CE4"/>
<path d="M12.153 8.91203C11.933 8.86203 11.893 8.90203 11.598 8.84703C11.4489 8.82712 11.3127 8.75222 11.216 8.63703H11.213C11.3153 7.86816 11.1371 7.08817 10.711 6.44003L10.716 6.43603C10.7672 6.29729 10.855 6.17497 10.97 6.08203C11.211 5.90403 11.265 5.92303 11.441 5.78203C11.577 5.67303 11.621 5.50203 11.538 5.39803C11.454 5.29403 11.278 5.29803 11.142 5.40703C10.966 5.54703 10.972 5.60404 10.745 5.80003C10.6365 5.90466 10.4927 5.96463 10.342 5.96803L10.338 5.97104C9.7991 5.4091 9.07536 5.06072 8.3 4.99003V4.97603C8.2229 4.8494 8.18144 4.70429 8.18 4.55604C8.191 4.25604 8.24 4.22603 8.24 4.00103C8.24 3.82703 8.133 3.68604 8 3.68604C7.867 3.68604 7.76 3.82703 7.76 4.00103C7.76 4.22603 7.809 4.25704 7.82 4.55604C7.824 4.66204 7.82 4.82603 7.7 4.97603V4.99003C6.9161 5.06207 6.18541 5.41763 5.645 5.99003C5.50531 5.96934 5.37337 5.91284 5.262 5.82604C5.034 5.62903 5.042 5.57303 4.865 5.43303C4.729 5.32403 4.552 5.32003 4.469 5.42303C4.387 5.52803 4.43 5.70003 4.566 5.81003C4.742 5.95003 4.796 5.93003 5.037 6.11003C5.12 6.17003 5.24 6.27203 5.287 6.44803C4.85947 7.10034 4.6829 7.8855 4.79 8.65803C4.68765 8.75182 4.56305 8.81791 4.428 8.85004C4.133 8.90504 4.093 8.86503 3.874 8.91403C3.704 8.95103 3.59 9.08703 3.62 9.21603C3.65 9.34603 3.811 9.41903 3.98 9.38003C4.2 9.33003 4.218 9.27603 4.508 9.19803C4.64086 9.15506 4.7844 9.15859 4.915 9.20803C5.1558 9.95319 5.65757 10.5863 6.328 10.991L6.311 11.021C6.32547 11.1684 6.2999 11.317 6.237 11.451C6.097 11.717 6.04 11.721 5.942 11.925C5.867 12.082 5.902 12.255 6.022 12.313C6.142 12.371 6.299 12.291 6.375 12.133C6.472 11.931 6.442 11.883 6.562 11.607C6.61467 11.466 6.71809 11.3498 6.852 11.281L6.866 11.25C7.61138 11.5273 8.43253 11.5216 9.174 11.234C9.27749 11.3109 9.36114 11.4113 9.418 11.527C9.538 11.803 9.508 11.851 9.604 12.053C9.68 12.21 9.838 12.29 9.957 12.233C10.077 12.176 10.112 12.002 10.037 11.845C9.939 11.643 9.882 11.635 9.742 11.371C9.67559 11.2586 9.64621 11.1281 9.658 10.998C10.3309 10.5963 10.836 9.96481 11.08 9.22004H11.082C11.2225 9.17277 11.3732 9.16448 11.518 9.19603C11.808 9.27403 11.826 9.32803 12.046 9.37804C12.216 9.41703 12.376 9.34303 12.406 9.21403C12.436 9.08403 12.322 8.95003 12.153 8.91203ZM9.82 6.38703C9.363 6.73503 8.85 7.08403 8.58 7.19903C8.53485 7.17337 8.48808 7.15066 8.44 7.13103C8.38 6.90103 8.323 6.25103 8.303 5.65403C8.8766 5.7212 9.41092 5.97938 9.82 6.38703ZM8.19 7.82003L8.435 8.11404L8.36 8.49003L8.019 8.66403L7.67 8.50603L7.576 8.13504L7.808 7.83003L8.19 7.82003ZM7.702 5.65203C7.688 6.23103 7.64 6.85203 7.561 7.13003C7.505 7.15303 7.451 7.18003 7.4 7.21103C7.157 7.09103 6.63 6.73903 6.172 6.39603C6.582 5.98203 7.122 5.72003 7.702 5.65303V5.65203ZM5.42 8.21503C5.42 7.73904 5.55 7.27103 5.8 6.86503C6.239 7.23103 6.694 7.65303 6.874 7.89503C6.86106 7.94204 6.85105 7.9898 6.844 8.03803C6.598 8.15404 5.992 8.34604 5.436 8.49103C5.42584 8.39938 5.4205 8.30725 5.42 8.21503ZM6.612 10.39C6.12772 10.0806 5.76037 9.61858 5.568 9.07703C6.118 8.96303 6.725 8.87103 7.035 8.87703C7.062 8.91703 7.092 8.95603 7.125 8.99203C7.095 9.20003 6.86 9.82604 6.612 10.39ZM8 10.795C7.71205 10.7952 7.4261 10.7472 7.154 10.653C7.424 10.128 7.742 9.58303 7.929 9.38304C7.99031 9.38714 8.05185 9.38614 8.113 9.38003C8.288 9.61403 8.603 10.152 8.859 10.648C8.58307 10.7454 8.29259 10.7951 8 10.795ZM9.396 10.385C9.164 9.87703 8.938 9.30903 8.87 8.99803C8.904 8.96003 8.935 8.92003 8.964 8.87804C9.215 8.87403 9.854 8.96303 10.432 9.07503C10.242 9.61503 9.877 10.075 9.396 10.385ZM10.566 8.49003C10.008 8.35003 9.414 8.16503 9.156 8.02603C9.14824 7.97875 9.13756 7.93199 9.124 7.88603C9.272 7.69003 9.744 7.24203 10.195 6.85803C10.4972 7.34543 10.6274 7.91998 10.565 8.49003H10.566Z" fill="#F2F2F2"/>
</svg>
