<svg width="16" height="16" viewBox="0 0 16 16" fill="none" xmlns="http://www.w3.org/2000/svg">
<path d="M8.20626 3.09842C8.07188 3.18592 7.96876 3.31405 7.91095 3.46405C7.85157 3.6578 7.86095 3.86405 7.93438 4.05311C7.99532 4.25155 8.1172 4.42499 8.28126 4.54999C8.36563 4.60936 8.46251 4.64686 8.56563 4.65936C8.66876 4.67186 8.77188 4.65467 8.86407 4.6078C8.97345 4.54686 9.06095 4.45155 9.11251 4.33749C9.16251 4.22186 9.19063 4.09842 9.19376 3.97342C9.2047 3.81405 9.18438 3.65467 9.13438 3.50311C9.0797 3.33749 8.97345 3.1953 8.8297 3.09842C8.75626 3.05155 8.67501 3.0203 8.58907 3.0078C8.50313 2.9953 8.41563 3.00467 8.33438 3.03592C8.28907 3.05467 8.24532 3.07811 8.2047 3.10624" fill="white"/>
<path d="M12.6594 9.47647C12.5797 9.03428 12.4547 8.60147 12.2875 8.18585C12.1734 7.87647 12.0187 7.58272 11.8265 7.31397C11.6328 7.05616 11.3875 6.83897 11.1984 6.57803C11.0984 6.4421 11.0141 6.29053 10.9094 6.15772C10.8672 6.07022 10.8265 5.98272 10.7859 5.89522C10.6609 5.62178 10.5469 5.3421 10.3984 5.08272C10.375 5.0421 10.35 5.00147 10.3266 4.96241C10.3078 4.71241 10.2812 4.46241 10.2672 4.21241C10.2781 3.71085 10.2359 3.20772 10.1406 2.71397C10.075 2.47803 9.97499 2.25147 9.84374 2.04522C9.69061 1.80147 9.49374 1.58897 9.26249 1.41866C8.88592 1.15147 8.43592 1.00772 7.97499 1.00616C7.63592 0.998346 7.29999 1.07491 6.99842 1.23116C6.68124 1.4046 6.42499 1.67178 6.26405 1.99522C6.11405 2.32178 6.03436 2.67491 6.02967 3.03428C6.01717 3.38741 6.04999 3.73741 6.06405 4.09053C6.07811 4.45616 6.0703 4.82335 6.09999 5.18897C6.10936 5.30616 6.12342 5.42335 6.12342 5.5421C6.12342 5.60147 6.1203 5.66085 6.11874 5.71866L6.11405 5.73116C5.95467 6.00147 5.77811 6.26241 5.58592 6.51085C5.45155 6.68116 5.31717 6.84991 5.18124 7.0171C5.00467 7.21553 4.85467 7.43585 4.73592 7.67335C4.65624 7.8796 4.59217 8.0921 4.54217 8.30772L4.53749 8.32491C4.46249 8.57335 4.36874 8.81397 4.25624 9.04678C4.2453 9.06866 4.23436 9.0921 4.22499 9.11241C4.1578 9.25147 4.08749 9.39053 4.01405 9.52647L3.92967 9.68428C3.87655 9.7796 3.82967 9.87803 3.78905 9.97803C3.76561 10.039 3.74686 10.1015 3.73592 10.1655C3.71561 10.3015 3.72499 10.439 3.76092 10.5702C3.76874 10.603 3.77967 10.6358 3.79061 10.6687C3.82499 10.7655 3.86561 10.8608 3.91405 10.9515C3.93592 10.9937 3.95936 11.0343 3.98124 11.0765L4.00155 11.1062C4.02342 11.1452 4.04686 11.1843 4.0703 11.2218L4.07342 11.2265C4.09999 11.2702 4.12967 11.3124 4.1578 11.3546L4.16249 11.3608C4.19217 11.4015 4.22186 11.4437 4.25311 11.4843C4.36874 11.9358 4.58124 12.3562 4.87342 12.7187C4.82811 12.7983 4.78749 12.8765 4.74217 12.9546C4.5828 13.1858 4.45155 13.4343 4.34999 13.6952C4.3078 13.8296 4.29686 13.9718 4.3203 14.1108C4.34217 14.2515 4.41405 14.378 4.52342 14.4702C4.59686 14.5265 4.68124 14.5655 4.7703 14.5843C4.85936 14.603 4.95155 14.6124 5.04374 14.6077C5.39061 14.5812 5.73436 14.5124 6.06561 14.4062C6.26561 14.353 6.46561 14.3062 6.66874 14.2655C6.87967 14.2171 7.09374 14.1874 7.30936 14.178C7.36249 14.1796 7.41561 14.1765 7.46717 14.1733C7.61405 14.189 7.76092 14.1952 7.90936 14.189L7.96405 14.1858C8.00155 14.1905 8.04061 14.1921 8.07967 14.1952C8.33905 14.2093 8.59686 14.2358 8.85311 14.2749C9.07811 14.3093 9.30311 14.353 9.52499 14.4077C9.86717 14.5108 10.2187 14.5796 10.5766 14.6093C10.6703 14.614 10.7641 14.6062 10.8578 14.5874C10.95 14.5687 11.0375 14.528 11.1125 14.4718C11.2219 14.3812 11.2937 14.2546 11.3172 14.114C11.3406 13.9749 11.3297 13.8327 11.2875 13.6983C11.1844 13.4374 11.0515 13.189 10.8891 12.9593C10.8328 12.864 10.7797 12.7655 10.7234 12.6702C10.9656 12.3999 11.1797 12.103 11.3594 11.7874C11.4687 11.7937 11.5765 11.7812 11.6812 11.7468C11.9547 11.6546 12.1922 11.4765 12.3578 11.239C12.4078 11.1687 12.4469 11.0905 12.4703 11.0077C12.5781 10.8405 12.6515 10.653 12.6859 10.4562C12.7359 10.1312 12.7281 9.79835 12.6625 9.47647H12.6594Z" fill="#020204"/>
<path d="M6.65001 5.05008C6.60157 5.11258 6.5672 5.18602 6.55001 5.26258C6.53282 5.33915 6.52188 5.41883 6.52032 5.49696C6.52501 5.65477 6.51251 5.81258 6.48126 5.96727C6.42657 6.12821 6.34376 6.27665 6.23751 6.40946C6.0547 6.63915 5.91095 6.89696 5.81251 7.17196C5.76251 7.34227 5.74532 7.5204 5.76407 7.69852C5.57501 7.97821 5.41095 8.27508 5.27501 8.58446C5.06563 9.05165 4.93126 9.55008 4.87657 10.0595C4.80938 10.686 4.90157 11.3188 5.1422 11.9001C5.31876 12.3188 5.58751 12.6938 5.92813 12.9954C6.10313 13.147 6.29532 13.2751 6.50157 13.3766C7.23126 13.7329 8.08595 13.7251 8.80782 13.3548C9.16876 13.1438 9.49845 12.8829 9.78595 12.5813C9.97188 12.4126 10.1375 12.2235 10.2828 12.0173C10.525 11.597 10.6672 11.1251 10.6969 10.6407C10.8469 9.80321 10.7547 8.94071 10.4328 8.15321C10.3063 7.89071 10.1391 7.65008 9.93595 7.44071C9.88126 7.07345 9.775 6.71576 9.62032 6.37821C9.50782 6.13602 9.37188 5.90477 9.2672 5.65633C9.22501 5.55477 9.18751 5.45165 9.14063 5.35321C9.09532 5.25321 9.03282 5.16102 8.95626 5.0829C8.87345 5.00633 8.77501 4.94852 8.6672 4.91571C8.55938 4.88133 8.44845 4.86258 8.33595 4.85946C8.11095 4.84852 7.88438 4.87665 7.66251 4.86883C7.48282 4.86102 7.30626 4.82977 7.12657 4.84071C7.03751 4.8454 6.94845 4.86258 6.86563 4.8954C6.78126 4.92821 6.70782 4.98133 6.65001 5.05165M6.72188 3.09696C6.63751 3.10321 6.55782 3.13915 6.49688 3.19696C6.43595 3.25477 6.39063 3.32821 6.36563 3.4079C6.32345 3.5704 6.31251 3.74071 6.33595 3.9079C6.33907 4.05946 6.36563 4.21102 6.41563 4.35477C6.44376 4.42508 6.48438 4.49071 6.53751 4.5454C6.59063 4.60008 6.65782 4.64071 6.73126 4.65946C6.80157 4.67665 6.87501 4.67352 6.9422 4.65165C7.00938 4.62977 7.07188 4.59227 7.12188 4.54227C7.19532 4.46727 7.24845 4.37508 7.27501 4.27508C7.30157 4.17508 7.31407 4.0704 7.31095 3.96571C7.31095 3.83602 7.29063 3.70633 7.25157 3.58133C7.21251 3.45633 7.14532 3.34227 7.0547 3.24696C7.01095 3.20165 6.96095 3.16258 6.9047 3.13446C6.84688 3.1079 6.78438 3.09383 6.72188 3.09696ZM8.20626 3.09696C8.07188 3.18446 7.96876 3.31258 7.91095 3.46258C7.85157 3.65633 7.86095 3.86258 7.93438 4.05165C7.99532 4.25008 8.1172 4.42352 8.28126 4.54852C8.36563 4.6079 8.46251 4.6454 8.56563 4.6579C8.66876 4.6704 8.77188 4.65321 8.86407 4.60633C8.97345 4.5454 9.06095 4.45008 9.11251 4.33602C9.16251 4.2204 9.19063 4.09696 9.19376 3.97196C9.2047 3.81258 9.18438 3.65321 9.13438 3.50165C9.0797 3.33602 8.97345 3.19383 8.8297 3.09696C8.75626 3.05008 8.67501 3.01883 8.58907 3.00633C8.50313 2.99383 8.41563 3.00321 8.33438 3.03446C8.28907 3.05321 8.24532 3.07665 8.2047 3.10477" fill="white"/>
<path d="M8.50782 3.49384C8.45782 3.49696 8.41094 3.51258 8.36875 3.53915C8.32657 3.56571 8.29063 3.60165 8.2625 3.64227C8.20938 3.72509 8.17969 3.82196 8.17813 3.92196C8.17344 3.9954 8.18438 4.0704 8.20782 4.14071C8.23125 4.21102 8.275 4.27352 8.33125 4.3204C8.39063 4.36883 8.4625 4.39696 8.53907 4.40165C8.61563 4.40477 8.69063 4.38446 8.75313 4.34071C8.80313 4.30477 8.84375 4.25946 8.87188 4.20477C8.9 4.15165 8.91719 4.09227 8.925 4.0329C8.94063 3.92665 8.92188 3.81727 8.875 3.72196C8.82657 3.62508 8.74375 3.55165 8.64375 3.51258C8.6 3.4954 8.55469 3.48915 8.50782 3.49071" fill="#020204"/>
<path d="M6.72187 3.09833C6.6375 3.10458 6.55781 3.14052 6.49687 3.19833C6.43593 3.25614 6.39062 3.32958 6.36562 3.40927C6.32343 3.57177 6.3125 3.74208 6.33593 3.90927C6.33906 4.06083 6.36562 4.21239 6.41562 4.35614C6.44375 4.42802 6.48437 4.49208 6.5375 4.54677C6.59062 4.60146 6.65781 4.64208 6.73125 4.66083C6.80156 4.67802 6.875 4.67489 6.94218 4.65302C7.00937 4.63114 7.07187 4.59364 7.12187 4.54364C7.19531 4.46864 7.24843 4.37646 7.275 4.27646C7.30156 4.17646 7.31406 4.07177 7.31093 3.96708C7.31093 3.83739 7.29062 3.70771 7.25156 3.58271C7.2125 3.45771 7.14531 3.34364 7.05468 3.24833C7.01093 3.20302 6.96093 3.16396 6.90468 3.13583C6.84687 3.10927 6.78437 3.09521 6.72187 3.09833Z" fill="white"/>
<path d="M6.52032 3.79384C6.50001 3.89853 6.5047 4.0079 6.53751 4.10946C6.56251 4.17665 6.60001 4.23759 6.65001 4.28915C6.68126 4.32353 6.7172 4.35321 6.75939 4.37353C6.80157 4.3954 6.84845 4.40165 6.89532 4.39071C6.93751 4.37978 6.97345 4.35478 7.00001 4.3204C7.02657 4.28603 7.04532 4.24697 7.05782 4.20634C7.09376 4.08447 7.09064 3.95478 7.05157 3.8329C7.02657 3.74384 6.97814 3.66259 6.90939 3.60165C6.87657 3.57353 6.83595 3.55165 6.79376 3.54072C6.75001 3.52978 6.7047 3.5329 6.66251 3.55165C6.61876 3.57353 6.58282 3.60946 6.56095 3.65321C6.53907 3.69696 6.52501 3.74384 6.51876 3.79228" fill="#020204"/>
<path d="M6.32187 5.10786C6.32499 5.12192 6.32968 5.13599 6.33749 5.14692C6.35156 5.1688 6.36874 5.18599 6.39062 5.20005C6.41093 5.21411 6.43124 5.22661 6.45156 5.23911C6.55937 5.31255 6.65468 5.40317 6.73124 5.50942C6.82499 5.6563 6.94218 5.78755 7.07499 5.90005C7.17656 5.97036 7.29531 6.01255 7.41874 6.02349C7.56249 6.03442 7.70781 6.01724 7.84687 5.97349C7.97499 5.93599 8.09843 5.88286 8.21406 5.81255C8.41249 5.65317 8.62499 5.51255 8.84999 5.39536C8.90312 5.37661 8.95624 5.36255 9.00624 5.33911C9.05781 5.31724 9.10156 5.27974 9.12812 5.22974C9.14531 5.17974 9.15624 5.12661 9.15781 5.07349C9.16562 5.01724 9.18437 4.96255 9.19374 4.9063C9.20624 4.85005 9.20156 4.79224 9.18124 4.73755C9.15937 4.69536 9.12499 4.66099 9.08281 4.63911C9.04062 4.6188 8.99374 4.6063 8.94687 4.60474C8.85156 4.60786 8.75781 4.61724 8.66562 4.63286C8.54062 4.6438 8.41562 4.62817 8.29062 4.63286C8.13593 4.63755 7.98124 4.67192 7.82499 4.67817C7.64687 4.68755 7.47031 4.65942 7.29218 4.65161C7.21562 4.64692 7.13749 4.65005 7.06093 4.66255C6.98437 4.67349 6.91093 4.70161 6.84687 4.74536C6.78749 4.79224 6.73281 4.84224 6.67968 4.89536C6.65156 4.92036 6.62031 4.94224 6.58749 4.95942C6.55312 4.97661 6.51718 4.98599 6.47812 4.98442C6.45937 4.9813 6.43906 4.9813 6.42031 4.98442C6.40937 4.98911 6.39843 4.99536 6.39062 5.00317L6.36718 5.0313C6.35156 5.05474 6.33749 5.07974 6.32656 5.10474" fill="#D99A03"/>
<path d="M6.71407 4.71403C6.65157 4.75153 6.59063 4.79216 6.52969 4.83434C6.49688 4.85466 6.47032 4.88122 6.45001 4.91403C6.43907 4.93903 6.43438 4.96559 6.43594 4.99216C6.43751 5.01872 6.43751 5.04528 6.43594 5.07184C6.43438 5.08903 6.42813 5.10778 6.42813 5.12653C6.42813 5.13591 6.42813 5.14528 6.43126 5.15309C6.43438 5.16247 6.43751 5.17028 6.44376 5.17653C6.45157 5.18434 6.46251 5.19059 6.47501 5.19372C6.48594 5.19684 6.49844 5.19841 6.51094 5.20153C6.56563 5.21716 6.61563 5.24684 6.65626 5.28591C6.69844 5.32341 6.73594 5.36716 6.78126 5.40309C6.90626 5.49684 7.05782 5.54528 7.21251 5.54372C7.36719 5.54059 7.52032 5.51872 7.66876 5.47966C7.78594 5.45466 7.90157 5.42341 8.01407 5.38434C8.18907 5.31872 8.35001 5.22341 8.48907 5.09997C8.55001 5.04059 8.61407 4.98747 8.68282 4.93903C8.74532 4.89997 8.81876 4.87341 8.88126 4.83591C8.88751 4.83278 8.89219 4.82809 8.89844 4.82497C8.90313 4.82028 8.90782 4.81559 8.91094 4.80934C8.91563 4.79841 8.91563 4.78591 8.91094 4.77497C8.90782 4.76403 8.90313 4.75466 8.89688 4.74684C8.88907 4.73747 8.87969 4.72809 8.87032 4.72028C8.79844 4.66716 8.71251 4.63747 8.62344 4.63434C8.53282 4.62809 8.44688 4.63434 8.35938 4.61716C8.27813 4.59997 8.19844 4.57653 8.12032 4.54841C8.03751 4.52184 7.95313 4.50153 7.86563 4.48747C7.66251 4.45466 7.45626 4.45934 7.25469 4.50309C7.06563 4.54528 6.88282 4.61716 6.71407 4.71403Z" fill="#604405"/>
<path d="M6.69376 4.50147C6.60314 4.56241 6.52189 4.63741 6.45157 4.72178C6.41095 4.76866 6.37814 4.82334 6.35626 4.88272C6.3422 4.92959 6.33282 4.97803 6.32501 5.02647C6.32032 5.04366 6.3172 5.06241 6.3172 5.08116C6.3172 5.09053 6.31876 5.09991 6.32189 5.10772C6.32501 5.11709 6.3297 5.12491 6.33595 5.13116C6.34689 5.14209 6.36095 5.14834 6.37657 5.15147C6.39064 5.15459 6.40626 5.15459 6.42189 5.15616C6.49064 5.16709 6.5547 5.19522 6.61095 5.23584C6.6672 5.27491 6.72032 5.32022 6.77814 5.35772C6.90939 5.43584 7.05939 5.47803 7.21251 5.48116C7.36564 5.48428 7.5172 5.46866 7.66564 5.43584C7.78439 5.41397 7.90157 5.38116 8.01564 5.33741C8.18595 5.26397 8.34533 5.16866 8.49064 5.05303C8.55783 5.00303 8.62345 4.94991 8.68439 4.89209C8.7047 4.87178 8.72501 4.85147 8.74689 4.83272C8.76876 4.81397 8.79376 4.79991 8.82032 4.79053C8.86251 4.77959 8.90626 4.77803 8.95001 4.78897C8.98126 4.79678 9.01407 4.79991 9.04689 4.79991C9.06407 4.79991 9.0797 4.79678 9.09532 4.79209C9.11095 4.78584 9.12501 4.77647 9.13439 4.76397C9.14845 4.74678 9.1547 4.72647 9.1547 4.70459C9.1547 4.68272 9.14845 4.66241 9.13751 4.64366C9.11407 4.60772 9.07814 4.57959 9.03907 4.56397C8.98439 4.54209 8.92814 4.52491 8.87033 4.51397C8.69376 4.47178 8.52189 4.40928 8.35939 4.32803C8.27814 4.28741 8.20158 4.24366 8.12033 4.20147C8.03908 4.15616 7.9547 4.11709 7.8672 4.08897C7.66564 4.03428 7.45157 4.04366 7.25626 4.11709C7.03751 4.19366 6.8422 4.32647 6.6922 4.50303" fill="#F5BD0C"/>
<path d="M7.71093 4.25317C7.72186 4.28911 7.77811 4.28286 7.81093 4.29848C7.84374 4.31411 7.86249 4.3438 7.89374 4.34692C7.92655 4.35005 7.97186 4.33598 7.97655 4.3063C7.9828 4.26567 7.92343 4.24067 7.88593 4.22661C7.83593 4.20317 7.77968 4.20161 7.72968 4.22348C7.71874 4.22817 7.7078 4.24223 7.71093 4.25317ZM7.17343 4.23442C7.13124 4.22036 7.06249 4.2938 7.0828 4.33286C7.08905 4.3438 7.1078 4.3563 7.1203 4.35005C7.1328 4.3438 7.15624 4.30161 7.17655 4.28755C7.19218 4.27505 7.18905 4.23911 7.17343 4.23442Z" fill="#CD8907"/>
<path d="M13.8703 12.9655C13.8391 13.0468 13.7938 13.1218 13.7375 13.189C13.6063 13.3296 13.4469 13.4421 13.2719 13.5202C12.975 13.6577 12.6859 13.8108 12.4047 13.978C12.2219 14.0999 12.0516 14.2374 11.8938 14.3905C11.7641 14.5265 11.625 14.6515 11.4781 14.7686C11.325 14.8811 11.1484 14.9577 10.9609 14.9874C10.7313 15.0171 10.4984 14.9811 10.2875 14.8858C10.1359 14.828 10.0047 14.7265 9.9125 14.5921C9.83438 14.4483 9.79844 14.2874 9.80625 14.1249C9.81563 13.839 9.85 13.5546 9.90938 13.2733C9.95 13.039 9.99063 12.8046 10.0156 12.5686C10.0594 12.1374 10.0641 11.7046 10.0313 11.2733C10.0234 11.2015 10.0234 11.128 10.0313 11.0561C10.0406 10.9093 10.1641 10.7968 10.3125 10.7983C10.3797 10.7968 10.4469 10.803 10.5125 10.8155C10.6688 10.8343 10.825 10.8608 10.9781 10.8968C11.0734 10.9218 11.1688 10.9561 11.2641 10.9827C11.4234 11.0296 11.5922 11.0436 11.7578 11.028C11.9313 10.9874 12.1078 10.9608 12.2859 10.9452C12.3594 10.9483 12.4328 10.9608 12.5016 10.9827C12.5734 11.003 12.6406 11.039 12.6953 11.0905C12.7344 11.1327 12.7656 11.1811 12.7859 11.2343C12.8156 11.314 12.8344 11.3968 12.8406 11.4811C12.8438 11.5561 12.85 11.6311 12.8594 11.7061C12.8859 11.8265 12.9438 11.939 13.025 12.0327C13.1078 12.1233 13.1969 12.2077 13.2938 12.2827C13.3859 12.364 13.4828 12.439 13.5844 12.5077C13.6328 12.5405 13.6813 12.5702 13.7266 12.6061C13.7734 12.6405 13.8125 12.6843 13.8422 12.7343C13.8797 12.803 13.8922 12.8827 13.8734 12.9593" fill="#F5BD0C"/>
<path d="M13.8703 12.9655C13.8391 13.0468 13.7938 13.1218 13.7375 13.189C13.6063 13.3296 13.4469 13.4421 13.2719 13.5202C12.975 13.6577 12.686 13.8108 12.4047 13.978C12.2219 14.0999 12.0516 14.2374 11.8938 14.3905C11.7641 14.5265 11.625 14.6515 11.4781 14.7687C11.325 14.8812 11.1485 14.9577 10.961 14.9874C10.7313 15.0171 10.4985 14.9812 10.2875 14.8858C10.136 14.828 10.0047 14.7265 9.91252 14.5921C9.83439 14.4484 9.79845 14.2874 9.80626 14.1249C9.81564 13.839 9.85002 13.5546 9.90939 13.2733C9.95002 13.039 9.99064 12.8046 10.0156 12.5687C10.0594 12.1374 10.0641 11.7046 10.0313 11.2733C10.0235 11.2015 10.0235 11.128 10.0313 11.0562C10.0406 10.9093 10.1641 10.7968 10.3125 10.7983C10.3797 10.7968 10.4469 10.803 10.5125 10.8155C10.6688 10.8343 10.825 10.8609 10.9781 10.8968C11.0735 10.9218 11.1688 10.9562 11.2641 10.9827C11.4235 11.0296 11.5922 11.0437 11.7578 11.028C11.9313 10.9874 12.1078 10.9608 12.286 10.9452C12.3594 10.9483 12.4328 10.9609 12.5016 10.9827C12.5735 11.003 12.6406 11.039 12.6953 11.0905C12.7344 11.1327 12.7656 11.1812 12.786 11.2343C12.8156 11.314 12.8344 11.3968 12.8406 11.4812C12.8438 11.5562 12.85 11.6312 12.8594 11.7062C12.886 11.8265 12.9438 11.939 13.025 12.0327C13.1078 12.1233 13.1969 12.2077 13.2938 12.2827C13.386 12.364 13.4828 12.439 13.5844 12.5077C13.6328 12.5405 13.6813 12.5702 13.7266 12.6062C13.7735 12.6405 13.8125 12.6843 13.8422 12.7343C13.8797 12.803 13.8922 12.8827 13.8735 12.9593M4.05314 10.5671C4.1297 10.5374 4.21251 10.5296 4.29376 10.5452C4.37501 10.5609 4.45158 10.5937 4.51877 10.6405C4.64845 10.739 4.76095 10.8608 4.85001 10.9968C5.07033 11.2999 5.28126 11.6093 5.47345 11.9312C5.6297 12.1921 5.77189 12.4608 5.95158 12.7062C6.06876 12.8655 6.20158 13.014 6.32033 13.1733C6.44377 13.3296 6.53752 13.5077 6.59533 13.6968C6.66408 13.9483 6.63595 14.2155 6.51877 14.4483C6.43439 14.6108 6.30783 14.7468 6.15314 14.8405C5.99689 14.9343 5.8172 14.9812 5.63439 14.9765C5.34689 14.9374 5.06876 14.8499 4.81252 14.7171C4.2672 14.4999 3.67502 14.4312 3.11252 14.2624C2.93908 14.2108 2.77033 14.1483 2.59533 14.1015C2.5172 14.0827 2.44064 14.0593 2.36564 14.028C2.2922 13.9968 2.22814 13.9437 2.18595 13.8765C2.1547 13.8218 2.13908 13.7593 2.14064 13.6968C2.1422 13.6343 2.1547 13.5733 2.17658 13.5171C2.21877 13.3999 2.28752 13.2952 2.33283 13.1796C2.40158 12.989 2.42814 12.7843 2.41095 12.5827C2.40158 12.3812 2.36564 12.1796 2.3547 11.978C2.34533 11.8874 2.34845 11.7968 2.36408 11.7077C2.38752 11.5296 2.52658 11.3874 2.70627 11.3608C2.78908 11.3468 2.87189 11.3405 2.9547 11.3452C3.03752 11.3499 3.12189 11.3499 3.2047 11.3452C3.28752 11.3405 3.37033 11.3171 3.44377 11.278C3.51095 11.2374 3.57033 11.1812 3.61564 11.1155C3.66095 11.0499 3.70158 10.9827 3.73908 10.9124C3.77658 10.8421 3.81877 10.7765 3.86877 10.714C3.91564 10.6499 3.9797 10.6015 4.05314 10.5671Z" fill="#F5BD0C"/>
<path d="M4.05314 10.5688C4.1297 10.5391 4.21251 10.5313 4.29376 10.5469C4.37501 10.5626 4.45158 10.5954 4.51877 10.6422C4.64845 10.7407 4.76095 10.8626 4.85001 10.9985C5.07033 11.3016 5.28126 11.611 5.47345 11.9329C5.6297 12.1938 5.77189 12.4626 5.95158 12.7079C6.06876 12.8672 6.20158 13.0157 6.32033 13.1751C6.44377 13.3313 6.53752 13.5094 6.59533 13.6985C6.66408 13.9501 6.63595 14.2172 6.51877 14.4501C6.43439 14.6126 6.30783 14.7485 6.15314 14.8422C5.99689 14.936 5.8172 14.9829 5.63439 14.9782C5.34689 14.9391 5.06876 14.8516 4.81252 14.7188C4.2672 14.5016 3.67502 14.4329 3.11252 14.2641C2.93908 14.2126 2.77033 14.1501 2.59533 14.1032C2.5172 14.0844 2.44064 14.061 2.36564 14.0297C2.2922 13.9985 2.22814 13.9454 2.18595 13.8782C2.1547 13.8235 2.13908 13.761 2.14064 13.6985C2.1422 13.636 2.1547 13.5751 2.17658 13.5188C2.21877 13.4016 2.28752 13.2969 2.33283 13.1813C2.40158 12.9907 2.42814 12.786 2.41095 12.5844C2.40158 12.3829 2.36564 12.1829 2.3547 11.9797C2.34533 11.8891 2.34845 11.7985 2.36408 11.7094C2.38752 11.5313 2.52658 11.3891 2.70627 11.3626C2.78908 11.3485 2.87189 11.3422 2.9547 11.3469C3.03752 11.3516 3.12189 11.3516 3.2047 11.3469C3.28752 11.3422 3.37033 11.3188 3.44377 11.2797C3.51095 11.2391 3.57033 11.1829 3.61564 11.1172C3.66095 11.0516 3.70158 10.9844 3.73908 10.9141C3.77658 10.8438 3.81877 10.7782 3.86877 10.7157C3.91564 10.6516 3.9797 10.6016 4.05314 10.5688Z" fill="#F5BD0C"/>
<path d="M4.17343 10.7C4.24218 10.6734 4.31874 10.6687 4.39061 10.6859C4.46249 10.7031 4.52968 10.7359 4.58749 10.7828C4.69843 10.8797 4.79218 10.9953 4.86249 11.125C5.04999 11.4281 5.2328 11.7343 5.40311 12.0468C5.52655 12.2859 5.66561 12.5172 5.81874 12.7375C5.92499 12.8812 6.04686 13.0125 6.15624 13.1531C6.2703 13.2922 6.35624 13.45 6.40936 13.6203C6.47186 13.8437 6.4453 14.0828 6.33905 14.2906C6.26093 14.4375 6.14374 14.5609 5.99999 14.6437C5.85624 14.7281 5.69061 14.7687 5.52499 14.7609C5.26405 14.7203 5.01093 14.6422 4.77186 14.5281C4.29686 14.3547 3.77968 14.3328 3.29218 14.1968C3.11718 14.15 2.94686 14.0859 2.7703 14.0422C2.69218 14.025 2.61405 14.0031 2.53905 13.975C2.46405 13.9468 2.39843 13.8937 2.35468 13.8265C2.32655 13.7734 2.31249 13.714 2.31561 13.6547C2.31874 13.5953 2.33124 13.5359 2.35311 13.4797C2.3953 13.3687 2.46249 13.2672 2.50468 13.1562C2.56405 12.9843 2.58436 12.8031 2.56561 12.6218C2.55311 12.4422 2.5203 12.264 2.51093 12.0828C2.50468 12.0031 2.5078 11.9218 2.52186 11.8422C2.53593 11.7625 2.57343 11.689 2.62968 11.6297C2.6953 11.5703 2.77655 11.5312 2.86405 11.5203C2.95155 11.5093 3.03905 11.5093 3.12499 11.5203C3.21249 11.5312 3.29999 11.5343 3.38749 11.5328C3.55936 11.5328 3.71561 11.4328 3.78905 11.2765C3.82499 11.2062 3.85624 11.1328 3.88124 11.0593C3.9078 10.9843 3.94374 10.914 3.98593 10.8468C4.02968 10.7797 4.09218 10.7265 4.16561 10.6953" fill="#F5BD0C"/>
</svg>
