<svg xmlns="http://www.w3.org/2000/svg" width="30" height="30" viewBox="0 0 30 30" fill="none">
  <path d="M25.3125 7.03125C25.5906 7.03125 25.8625 6.94878 26.0938 6.79425C26.325 6.63973 26.5053 6.42011 26.6117 6.16315C26.7181 5.90619 26.746 5.62344 26.6917 5.35066C26.6375 5.07787 26.5035 4.8273 26.3069 4.63063C26.1102 4.43396 25.8596 4.30003 25.5868 4.24577C25.3141 4.19151 25.0313 4.21936 24.7744 4.3258C24.5174 4.43223 24.2978 4.61247 24.1432 4.84373C23.9887 5.07499 23.9062 5.34687 23.9062 5.625C23.9062 5.99796 24.0544 6.35565 24.3181 6.61937C24.5819 6.88309 24.9395 7.03125 25.3125 7.03125ZM25.3125 22.9688C25.0344 22.9688 24.7625 23.0512 24.5312 23.2057C24.3 23.3603 24.1197 23.5799 24.0133 23.8369C23.9069 24.0938 23.879 24.3766 23.9333 24.6493C23.9875 24.9221 24.1215 25.1727 24.3181 25.3694C24.5148 25.566 24.7654 25.7 25.0382 25.7542C25.3109 25.8085 25.5937 25.7806 25.8506 25.6742C26.1076 25.5678 26.3272 25.3875 26.4818 25.1563C26.6363 24.925 26.7188 24.6531 26.7188 24.375C26.7188 24.002 26.5706 23.6444 26.3069 23.3806C26.0431 23.1169 25.6855 22.9688 25.3125 22.9688ZM28.125 11.25H1.875C1.37772 11.25 0.900806 11.4475 0.549175 11.7992C0.197544 12.1508 0 12.6277 0 13.125L0 16.875C0 17.3723 0.197544 17.8492 0.549175 18.2008C0.900806 18.5525 1.37772 18.75 1.875 18.75H28.125C28.6223 18.75 29.0992 18.5525 29.4508 18.2008C29.8025 17.8492 30 17.3723 30 16.875V13.125C30 12.6277 29.8025 12.1508 29.4508 11.7992C29.0992 11.4475 28.6223 11.25 28.125 11.25ZM21.5625 16.4063C21.2844 16.4063 21.0125 16.3238 20.7812 16.1693C20.55 16.0147 20.3697 15.7951 20.2633 15.5381C20.1569 15.2812 20.129 14.9984 20.1833 14.7257C20.2375 14.4529 20.3715 14.2023 20.5681 14.0056C20.7648 13.809 21.0154 13.675 21.2882 13.6208C21.5609 13.5665 21.8437 13.5944 22.1006 13.7008C22.3576 13.8072 22.5772 13.9875 22.7318 14.2187C22.8863 14.45 22.9688 14.7219 22.9688 15C22.9688 15.373 22.8206 15.7306 22.5569 15.9944C22.2931 16.2581 21.9355 16.4063 21.5625 16.4063ZM25.3125 16.4063C25.0344 16.4063 24.7625 16.3238 24.5312 16.1693C24.3 16.0147 24.1197 15.7951 24.0133 15.5381C23.9069 15.2812 23.879 14.9984 23.9333 14.7257C23.9875 14.4529 24.1215 14.2023 24.3181 14.0056C24.5148 13.809 24.7654 13.675 25.0382 13.6208C25.3109 13.5665 25.5937 13.5944 25.8506 13.7008C26.1076 13.8072 26.3272 13.9875 26.4818 14.2187C26.6363 14.45 26.7188 14.7219 26.7188 15C26.7188 15.373 26.5706 15.7306 26.3069 15.9944C26.0431 16.2581 25.6855 16.4063 25.3125 16.4063Z" fill="#315084" fill-opacity="0.1"/>
  <path d="M26.7188 15C26.7188 14.7219 26.6363 14.45 26.4818 14.2187C26.3272 13.9875 26.1076 13.8072 25.8506 13.7008C25.5937 13.5944 25.3109 13.5665 25.0382 13.6208C24.7654 13.675 24.5148 13.809 24.3181 14.0056C24.1215 14.2023 23.9875 14.4529 23.9333 14.7257C23.879 14.9984 23.9069 15.2812 24.0133 15.5381C24.1197 15.7951 24.3 16.0147 24.5312 16.1693C24.7625 16.3238 25.0344 16.4062 25.3125 16.4062C25.6855 16.4062 26.0431 16.2581 26.3069 15.9944C26.5706 15.7306 26.7188 15.373 26.7188 15ZM28.125 1.875H1.875C1.37772 1.875 0.900806 2.07254 0.549175 2.42417C0.197544 2.77581 0 3.25272 0 3.75L0 7.5C0 7.99728 0.197544 8.47419 0.549175 8.82582C0.900806 9.17746 1.37772 9.375 1.875 9.375H28.125C28.6223 9.375 29.0992 9.17746 29.4508 8.82582C29.8025 8.47419 30 7.99728 30 7.5V3.75C30 3.25272 29.8025 2.77581 29.4508 2.42417C29.0992 2.07254 28.6223 1.875 28.125 1.875ZM21.5625 7.03125C21.2844 7.03125 21.0125 6.94877 20.7812 6.79425C20.55 6.63973 20.3697 6.42011 20.2633 6.16315C20.1569 5.90619 20.129 5.62344 20.1833 5.35065C20.2375 5.07787 20.3715 4.8273 20.5681 4.63063C20.7648 4.43396 21.0154 4.30003 21.2882 4.24577C21.5609 4.19151 21.8437 4.21936 22.1006 4.32579C22.3576 4.43223 22.5772 4.61247 22.7318 4.84373C22.8863 5.07499 22.9688 5.34687 22.9688 5.625C22.9688 5.99796 22.8206 6.35565 22.5569 6.61937C22.2931 6.88309 21.9355 7.03125 21.5625 7.03125ZM25.3125 7.03125C25.0344 7.03125 24.7625 6.94877 24.5312 6.79425C24.3 6.63973 24.1197 6.42011 24.0133 6.16315C23.9069 5.90619 23.879 5.62344 23.9333 5.35065C23.9875 5.07787 24.1215 4.8273 24.3181 4.63063C24.5148 4.43396 24.7654 4.30003 25.0382 4.24577C25.3109 4.19151 25.5937 4.21936 25.8506 4.32579C26.1076 4.43223 26.3272 4.61247 26.4818 4.84373C26.6363 5.07499 26.7188 5.34687 26.7188 5.625C26.7188 5.99796 26.5706 6.35565 26.3069 6.61937C26.0431 6.88309 25.6855 7.03125 25.3125 7.03125ZM28.125 20.625H1.875C1.37772 20.625 0.900806 20.8225 0.549175 21.1742C0.197544 21.5258 0 22.0027 0 22.5L0 26.25C0 26.7473 0.197544 27.2242 0.549175 27.5758C0.900806 27.9275 1.37772 28.125 1.875 28.125H28.125C28.6223 28.125 29.0992 27.9275 29.4508 27.5758C29.8025 27.2242 30 26.7473 30 26.25V22.5C30 22.0027 29.8025 21.5258 29.4508 21.1742C29.0992 20.8225 28.6223 20.625 28.125 20.625ZM21.5625 25.7812C21.2844 25.7812 21.0125 25.6988 20.7812 25.5443C20.55 25.3897 20.3697 25.1701 20.2633 24.9131C20.1569 24.6562 20.129 24.3734 20.1833 24.1007C20.2375 23.8279 20.3715 23.5773 20.5681 23.3806C20.7648 23.184 21.0154 23.05 21.2882 22.9958C21.5609 22.9415 21.8437 22.9694 22.1006 23.0758C22.3576 23.1822 22.5772 23.3625 22.7318 23.5937C22.8863 23.825 22.9688 24.0969 22.9688 24.375C22.9688 24.748 22.8206 25.1056 22.5569 25.3694C22.2931 25.6331 21.9355 25.7812 21.5625 25.7812ZM25.3125 25.7812C25.0344 25.7812 24.7625 25.6988 24.5312 25.5443C24.3 25.3897 24.1197 25.1701 24.0133 24.9131C23.9069 24.6562 23.879 24.3734 23.9333 24.1007C23.9875 23.8279 24.1215 23.5773 24.3181 23.3806C24.5148 23.184 24.7654 23.05 25.0382 22.9958C25.3109 22.9415 25.5937 22.9694 25.8506 23.0758C26.1076 23.1822 26.3272 23.3625 26.4818 23.5937C26.6363 23.825 26.7188 24.0969 26.7188 24.375C26.7188 24.748 26.5706 25.1056 26.3069 25.3694C26.0431 25.6331 25.6855 25.7812 25.3125 25.7812Z" fill="#304B77" fill-opacity="0.3"/>
</svg>